<svg xmlns="http://www.w3.org/2000/svg" viewBox="0 0 733.07 179.60" role="img" aria-label="paddock">
  <title>Paddock</title>
  <g transform="translate(0 136.500)">
      <path d="M148 -418V1118H362V936H380Q400 971 435.5 1017.0Q471 1063 534.5 1097.5Q598 1132 703 1132Q837 1132 942.5 1064.0Q1048 996 1109.0 867.0Q1170 738 1170 556Q1170 376 1110.0 246.5Q1050 117 944.5 47.5Q839 -22 703 -22Q602 -22 537.5 12.5Q473 47 436.5 93.0Q400 139 380 175H368V-418ZM654 165Q750 165 815.0 217.0Q880 269 912.5 358.0Q945 447 945 558Q945 668 912.5 755.5Q880 843 815.5 894.0Q751 945 654 945Q560 945 495.0 896.5Q430 848 397.0 761.5Q364 675 364 558Q364 442 397.5 353.5Q431 265 496.0 215.0Q561 165 654 165Z" transform="translate(0.000 0) scale(0.087248 -0.087248)" fill="#F5F1E8"/>
      <path d="M461 -25Q355 -25 269.0 14.5Q183 54 133.0 130.0Q83 206 83 316Q83 411 119.5 472.0Q156 533 218.5 569.0Q281 605 357.5 623.0Q434 641 513 650Q612 662 674.0 669.5Q736 677 765.5 694.5Q795 712 795 751V757Q795 820 771.0 863.0Q747 906 699.5 929.5Q652 953 581 953Q508 953 455.5 930.5Q403 908 370.5 873.0Q338 838 322 800L115 854Q153 954 224.0 1015.0Q295 1076 387.0 1104.0Q479 1132 577 1132Q645 1132 721.0 1116.0Q797 1100 864.0 1058.0Q931 1016 973.0 940.0Q1015 864 1015 742V0H802V153H791Q769 110 726.0 69.0Q683 28 617.5 1.5Q552 -25 461 -25ZM510 152Q600 152 664.0 187.0Q728 222 762.0 280.0Q796 338 796 403V546Q784 534 750.5 524.5Q717 515 674.0 507.5Q631 500 591.0 495.0Q551 490 525 487Q463 479 411.5 460.0Q360 441 329.5 406.0Q299 371 299 313Q299 260 326.5 224.0Q354 188 401.0 170.0Q448 152 510 152Z" transform="translate(108.670 0) scale(0.087248 -0.087248)" fill="#F5F1E8"/>
      <path d="M564 -22Q428 -22 322.0 47.5Q216 117 156.0 246.5Q96 376 96 556Q96 738 157.0 867.0Q218 996 324.0 1064.0Q430 1132 564 1132Q668 1132 731.5 1097.5Q795 1063 831.0 1017.0Q867 971 886 936H898V1490H1118V0H904V175H886Q867 139 830.0 93.0Q793 47 729.0 12.5Q665 -22 564 -22ZM612 165Q706 165 770.5 215.0Q835 265 868.5 353.5Q902 442 902 558Q902 675 869.0 761.5Q836 848 771.5 896.5Q707 945 612 945Q515 945 450.5 894.0Q386 843 353.5 755.5Q321 668 321 558Q321 447 354.0 358.0Q387 269 452.0 217.0Q517 165 612 165Z" transform="translate(208.352 0) scale(0.087248 -0.087248)" fill="#F5F1E8"/>
      <path d="M564 -22Q428 -22 322.0 47.5Q216 117 156.0 246.5Q96 376 96 556Q96 738 157.0 867.0Q218 996 324.0 1064.0Q430 1132 564 1132Q668 1132 731.5 1097.5Q795 1063 831.0 1017.0Q867 971 886 936H898V1490H1118V0H904V175H886Q867 139 830.0 93.0Q793 47 729.0 12.5Q665 -22 564 -22ZM612 165Q706 165 770.5 215.0Q835 265 868.5 353.5Q902 442 902 558Q902 675 869.0 761.5Q836 848 771.5 896.5Q707 945 612 945Q515 945 450.5 894.0Q386 843 353.5 755.5Q321 668 321 558Q321 447 354.0 358.0Q387 269 452.0 217.0Q517 165 612 165Z" transform="translate(317.022 0) scale(0.087248 -0.087248)" fill="#F5F1E8"/>
      <path d="M618 -23Q461 -23 343.5 49.0Q226 121 161.0 251.0Q96 381 96 553Q96 727 161.0 857.5Q226 988 343.5 1060.0Q461 1132 618 1132Q776 1132 893.5 1060.0Q1011 988 1076.0 857.5Q1141 727 1141 553Q1141 381 1076.0 251.0Q1011 121 893.5 49.0Q776 -23 618 -23ZM618 163Q720 163 786.5 216.5Q853 270 885.5 358.5Q918 447 918 553Q918 660 885.5 749.5Q853 839 786.5 892.5Q720 946 618 946Q517 946 451.0 892.5Q385 839 352.5 750.0Q320 661 320 553Q320 447 352.5 358.5Q385 270 451.0 216.5Q517 163 618 163Z" transform="translate(425.692 0) scale(0.087248 -0.087248)" fill="#F5F1E8"/>
      <path d="M618 -23Q460 -23 343.0 49.0Q226 121 161.0 251.0Q96 381 96 553Q96 727 161.0 857.5Q226 988 343.0 1060.0Q460 1132 618 1132Q705 1132 781.0 1109.5Q857 1087 918.5 1044.5Q980 1002 1022.5 940.5Q1065 879 1086 802L877 752Q866 795 843.0 830.5Q820 866 787.5 892.0Q755 918 712.5 932.0Q670 946 619 946Q518 946 451.5 892.5Q385 839 352.5 750.0Q320 661 320 553Q320 446 352.5 357.5Q385 269 451.5 216.0Q518 163 619 163Q671 163 714.0 177.5Q757 192 791.0 218.5Q825 245 848.0 282.5Q871 320 881 365L1089 315Q1069 236 1026.0 173.5Q983 111 921.5 67.0Q860 23 783.0 0.0Q706 -23 618 -23Z" transform="translate(531.831 0) scale(0.087248 -0.087248)" fill="#F5F1E8"/>
      <path d="M351 377V646H388L829 1118H1093L588 577H551ZM148 0V1490H368V0ZM852 0 455 528 607 684 1124 0Z" transform="translate(633.172 0) scale(0.087248 -0.087248)" fill="#F5F1E8"/>
  </g>
</svg>
